<svg aria-hidden="true" style="position:absolute;width:0;height:0;overflow:hidden" xmlns="http://www.w3.org/2000/svg"><defs><symbol id="icon-basketicons" viewBox="0 0 32 32"><path d="M1.467 12.878H29.76v-2.081H1.467v2.081zm27.675-.618v.914h2.081v-.914h-2.081zm-3.359 17.268H5.445v2.081h20.338v-2.081zM2.085 13.174v-.914H.004v.914h2.081zm3.946 16.717a37.382 37.382 0 0 1-3.946-16.717H.004a39.45 39.45 0 0 0 4.167 17.649l1.861-.932zm-.587-.363c.25 0 .477.142.587.362l-1.861.932a1.43 1.43 0 0 0 1.273.787v-2.081zm19.752.363a.658.658 0 0 1 .587-.363v2.081c.541 0 1.032-.304 1.274-.787l-1.861-.932zm3.946-16.717a37.412 37.412 0 0 1-3.946 16.717l1.861.932a39.466 39.466 0 0 0 4.167-17.649h-2.081zm.618-.296a.618.618 0 0 1-.618-.618h2.081a1.463 1.463 0 0 0-1.464-1.464v2.081zM1.467 10.797a1.463 1.463 0 0 0-1.464 1.464h2.081a.618.618 0 0 1-.618.618v-2.081zm6.714 1.575 6.244-10.406-1.788-1.07-6.244 10.407 1.788 1.07zm8.621-10.406 6.244 10.406 1.786-1.07L18.588.895l-1.786 1.07zM10.41 21.203h10.406v-2.081H10.41v2.081z"/></symbol><symbol id="icon-bathing-icon" viewBox="0 0 21 32"><path d="M14.973 9.81a2.183 2.183 0 0 0-.82-.982c-.262-.169-1.279-.305-1.312.643 0 0-.426.068-.394.372 0 0-.262.914.984.812 0 0 .23 1.726.426 2.099 0 0 .098.338.131.677h.525l.033-.677s.295.203.525.677h.754c-.033-.271-.066-.508-.131-.677 0 0 1.115 0 1.509-.508 0 0 .328.643.722.677v.542h.525c.033-.102.033-.203.066-.372 0 0 .197.102.295.372h.459c-.066-.237-.656-2.437-.853-2.606 0 0 .295-.034.394.338 0 0 .164.779.492.745 0 0 .23-.508-.164-1.151 0 0-.164-.474-1.017-.406l-2.46-.068a1.01 1.01 0 0 1-.689-.508zM11.989 7.203a.698.698 0 0 0-.098-.914.648.648 0 0 0-.886.102c-.623.812-1.738.948-2.525.609l-.426 1.219c1.345.542 2.985.271 3.936-1.016zM6.413 5.071c.888 0 1.607-.743 1.607-1.659S7.3 1.753 6.413 1.753c-.888 0-1.607.743-1.607 1.659s.72 1.659 1.607 1.659z"/><path d="m7.364 13.804-1.378-.575.82-2.403c-1.837-1.049-2.493-2.708-2.525-2.81-.197-.508.033-1.049.525-1.252s1.017.034 1.214.542c.033.068.426.948 1.443 1.659l.623-1.76a.605.605 0 0 0-.098-.575C6.807 5.276 5.43 4.768 3.921 5.242a1.206 1.206 0 0 0-.82.914l-1.312 7.041v.203l.066 3.216-.722-.169c-.492-.102-1.017.237-1.115.745s.23 1.049.722 1.151l1.869.406c.295.068.558 0 .787-.203s.361-.474.328-.779l-.066-3.385 2.394.982v2.945c0 .542.426.982.951.982s.951-.44.951-.982v-3.588c.033-.406-.23-.745-.59-.914z"/><path d="M9.89 10.114c-3.116-.237-4.1-2.573-4.133-2.674-.131-.338-.492-.474-.82-.338s-.459.508-.328.846c.066.135 1.312 3.182 5.215 3.487.361.034.656-.237.656-.609s-.23-.677-.59-.711zM15.498 5.714c-.656.135-1.148.745-1.148 1.456h2.919c0-.779-.558-1.388-1.279-1.489-.984-1.117-2.558-.677-3.805.44.066.068.131.169.197.271.886-.846 2.099-1.422 3.116-.677zM20.484 13.736h-9.216c-.262 0-.492.237-.492.508s.23.508.492.508h.098v.846c0 1.32 1.05 2.403 2.329 2.403h4.428c1.279 0 2.329-1.083 2.329-2.403v-.846h.098a.513.513 0 0 0 .492-.508c-.066-.305-.295-.508-.558-.508zM14.613 7.846l.033-.305c0-.102-.033-.169-.131-.169s-.164.034-.164.135l-.033.305c0 .102.033.169.131.169.066 0 .131-.068.164-.135zM14.219 8.253l-.033.305c0 .102.033.169.131.169s.164-.034.164-.135l.033-.305c0-.102-.033-.169-.131-.169-.066 0-.131.068-.164.135zM15.334 7.982c.098 0 .164-.068.164-.169v-.339c0-.102-.066-.169-.164-.169s-.164.068-.164.169v.339c0 .068.098.169.164.169zM15.137 8.591c0 .102.066.169.164.169s.164-.068.164-.169v-.338c0-.102-.066-.169-.164-.169s-.164.068-.164.169v.338zM16.22 7.339c-.098 0-.164.068-.164.169v.338c0 .102.066.169.164.169s.164-.068.164-.169v-.338c0-.102-.066-.169-.164-.169zM16.121 8.286v.338c0 .102.066.169.164.169s.164-.068.164-.169v-.338c0-.102-.066-.169-.164-.169-.131 0-.197.068-.164.169zM17.072 7.339c-.098 0-.131.102-.131.169l.033.305c0 .068.066.135.164.135s.164-.102.164-.203l-.066-.271c0-.102-.098-.169-.164-.135zM17.04 8.32l.033.305c0 .068.098.135.164.135.098 0 .164-.102.131-.169v-.338c0-.102-.098-.135-.164-.135-.098.034-.164.102-.164.203zM3.833 29.376h-.876l-.005-.457h.751c.129 0 .236-.018.323-.054s.151-.089.195-.158a.452.452 0 0 0 .068-.252.5.5 0 0 0-.064-.268.355.355 0 0 0-.193-.151.96.96 0 0 0-.334-.05h-.532v2.917h-.647v-3.428h1.18c.195 0 .368.019.52.057.154.036.284.093.391.17s.188.173.243.29a.944.944 0 0 1 .085.414.797.797 0 0 1-.099.391.722.722 0 0 1-.299.287 1.172 1.172 0 0 1-.509.127l-.198.165zm-.028 1.528H2.767l.271-.509h.768a.69.69 0 0 0 .318-.064.425.425 0 0 0 .188-.174.523.523 0 0 0 .064-.259.647.647 0 0 0-.056-.278.377.377 0 0 0-.174-.181.66.66 0 0 0-.311-.064h-.673l.005-.457h.857l.148.177a.922.922 0 0 1 .483.118c.126.077.218.176.278.297s.089.251.089.391a1 1 0 0 1-.144.553.867.867 0 0 1-.414.337 1.711 1.711 0 0 1-.657.113zm3.131-.541v-1.175c0-.086-.015-.161-.045-.224s-.075-.111-.137-.146a.475.475 0 0 0-.233-.052.535.535 0 0 0-.219.042.32.32 0 0 0-.141.12.308.308 0 0 0-.049.174h-.624c0-.105.025-.205.075-.299a.792.792 0 0 1 .214-.254c.094-.075.206-.134.337-.177.132-.042.279-.064.443-.064.193 0 .365.033.516.099a.783.783 0 0 1 .358.292c.088.13.132.294.132.492v1.111c0 .127.008.236.024.327a.898.898 0 0 0 .075.233v.04h-.633a.902.902 0 0 1-.068-.245 1.887 1.887 0 0 1-.024-.297zm.087-1.01.005.37h-.393a.948.948 0 0 0-.257.031.468.468 0 0 0-.181.085.347.347 0 0 0-.106.132.395.395 0 0 0 .007.341c.03.05.072.09.127.12a.438.438 0 0 0 .198.042c.11 0 .206-.022.287-.066.082-.045.145-.1.191-.165s.07-.125.073-.183l.179.268c-.022.064-.055.133-.099.205s-.1.14-.17.203a.854.854 0 0 1-.589.216c-.165 0-.312-.033-.443-.099s-.233-.156-.308-.271a.697.697 0 0 1-.113-.391c0-.135.025-.254.075-.358s.125-.191.224-.261a1.04 1.04 0 0 1 .367-.162c.148-.038.316-.057.506-.057h.419zm2.305-.996v.447h-1.46v-.447h1.46zm-1.069-.627h.624v2.439c0 .075.01.133.031.174s.051.068.092.082a.45.45 0 0 0 .146.021c.041 0 .079-.002.113-.007s.064-.009.087-.014l.002.466a1.21 1.21 0 0 1-.396.059.89.89 0 0 1-.367-.071.526.526 0 0 1-.245-.233.906.906 0 0 1-.087-.428v-2.489zm2.093-.442v3.616h-.624v-3.616h.624zm-.099 2.251h-.184c0-.178.024-.341.071-.49s.114-.279.2-.388a.875.875 0 0 1 .708-.351c.126 0 .239.018.341.054.104.035.192.09.266.167s.13.177.169.301c.041.122.061.272.061.447v1.625h-.626v-1.629a.612.612 0 0 0-.052-.278.308.308 0 0 0-.148-.148.538.538 0 0 0-.233-.045c-.1 0-.187.02-.259.059a.485.485 0 0 0-.179.158.762.762 0 0 0-.104.233 1.173 1.173 0 0 0-.033.285zm2.842-1.182v2.547h-.624v-2.547h.624zm-.666-.667c0-.093.031-.17.094-.231.064-.061.151-.092.259-.092s.194.031.257.092a.306.306 0 0 1 .097.231.3.3 0 0 1-.097.228c-.063.061-.148.092-.257.092s-.195-.031-.259-.092a.304.304 0 0 1-.094-.228zm1.869 1.21v2.004h-.622v-2.547h.584l.038.544zm-.098.639h-.184c.002-.185.027-.353.075-.504s.117-.28.205-.389a.913.913 0 0 1 .728-.336c.122 0 .233.017.332.052s.184.09.254.165a.733.733 0 0 1 .165.297c.039.121.059.27.059.447v1.634h-.626v-1.639a.601.601 0 0 0-.052-.275.292.292 0 0 0-.146-.144.571.571 0 0 0-.233-.042.51.51 0 0 0-.431.217c-.047.067-.083.145-.108.233s-.038.183-.038.285zm3.802-1.182h.565v2.47c0 .231-.05.426-.151.586a.938.938 0 0 1-.417.367 1.44 1.44 0 0 1-.624.127c-.102 0-.213-.014-.332-.042a1.322 1.322 0 0 1-.341-.134.848.848 0 0 1-.271-.233l.28-.367c.085.099.18.174.287.224a.78.78 0 0 0 .346.078.658.658 0 0 0 .32-.071.468.468 0 0 0 .205-.203.66.66 0 0 0 .073-.325v-1.895l.059-.581zm-1.721 1.304v-.049c0-.195.024-.371.071-.53.047-.16.115-.298.202-.412a.929.929 0 0 1 .323-.266.95.95 0 0 1 .428-.094c.168 0 .309.031.424.092a.772.772 0 0 1 .287.261c.077.113.137.247.179.403.044.154.078.323.101.509v.134a2.638 2.638 0 0 1-.106.497c-.047.151-.11.283-.188.395-.078.112-.176.198-.292.259s-.253.092-.41.092a.91.91 0 0 1-.747-.368c-.088-.116-.155-.253-.202-.41s-.071-.328-.071-.513zm.621-.049v.049c0 .11.011.213.033.308s.056.181.101.254c.046.072.103.129.172.169s.151.061.247.061a.572.572 0 0 0 .316-.08.515.515 0 0 0 .188-.224c.044-.096.072-.203.085-.322v-.37a1.108 1.108 0 0 0-.052-.261c-.025-.08-.06-.149-.106-.207s-.104-.104-.174-.137a.593.593 0 0 0-.252-.05.486.486 0 0 0-.421.236.904.904 0 0 0-.104.257 1.432 1.432 0 0 0-.033.316z"/></symbol><symbol id="icon-bone-icon" viewBox="0 0 73 32"><path d="M72.673 13.749c.834-1.892.379-4.677 0-6.753-.295-1.765-1.027-3.222-2.124-4.502S67.831.608 66.302.243c-1.214-.314-3.038-.336-4.247 0s-1.168 1.335-2.124 2.251c-2.383 2.173-5.455 2.326-8.494 2.251H21.706c-3.039.076-6.112-.078-8.494-2.251-.956-.916-.914-1.915-2.124-2.251s-3.034-.314-4.247 0c-1.529.365-3.151.971-4.247 2.251S.766 5.231.47 6.996c-.38 2.076-.834 4.861 0 6.753.302.681 2.124 1.486 2.124 2.251S.773 17.57.47 18.251c-.832 1.892-.378 4.677 0 6.753.296 1.766 1.028 3.22 2.124 4.502s2.718 1.882 4.247 2.251c1.214.313 3.038.336 4.247 0s1.168-1.335 2.124-2.251c2.382-2.176 5.454-2.322 8.494-2.251h29.731c3.04-.071 6.113.075 8.494 2.251.956.916.914 1.915 2.124 2.251s3.034.313 4.247 0c1.529-.369 3.151-.969 4.247-2.251s1.828-2.736 2.124-4.502c.378-2.076.832-4.861 0-6.753-.302-.681-2.124-1.486-2.124-2.251s1.822-1.57 2.124-2.251z"/></symbol><symbol id="icon-email-icon" viewBox="0 0 32 32"><path d="M16 31.238c-2.082 0-4.051-.4-5.905-1.201-1.854-.799-3.473-1.892-4.856-3.276s-2.477-3.003-3.276-4.856A14.745 14.745 0 0 1 .762 16c0-2.108.4-4.082 1.201-5.923s1.892-3.454 3.276-4.838c1.384-1.385 3.002-2.477 4.856-3.278S13.917.762 16 .762c2.108 0 4.082.4 5.923 1.199s3.454 1.893 4.838 3.278c1.385 1.384 2.477 2.996 3.276 4.838s1.201 3.815 1.201 5.923v2.21c0 1.498-.514 2.774-1.542 3.828-1.029 1.055-2.293 1.582-3.791 1.582-.914 0-1.765-.203-2.552-.61s-1.435-.94-1.943-1.6a7.576 7.576 0 0 1-5.409 2.21c-2.108 0-3.905-.743-5.39-2.229-1.486-1.485-2.229-3.282-2.229-5.39s.743-3.905 2.229-5.391c1.485-1.485 3.282-2.228 5.39-2.228s3.905.743 5.391 2.228c1.485 1.486 2.228 3.283 2.228 5.391v2.209c0 .736.229 1.314.686 1.733.457.42.99.629 1.6.629s1.143-.21 1.6-.629c.457-.419.686-.996.686-1.733V16c0-3.327-1.2-6.191-3.601-8.591-2.4-2.399-5.263-3.599-8.59-3.599S9.81 5.01 7.41 7.409C5.011 9.81 3.811 12.673 3.811 16s1.2 6.19 3.599 8.59c2.4 2.4 5.264 3.601 8.591 3.601h7.619v3.048h-7.619zm0-10.667c1.27 0 2.349-.444 3.238-1.333S20.571 17.27 20.571 16s-.444-2.349-1.333-3.238S17.27 11.429 16 11.429s-2.349.444-3.238 1.333S11.429 14.73 11.429 16s.444 2.349 1.333 3.238S14.73 20.571 16 20.571z"/></symbol><symbol id="icon-facebook-icon" viewBox="0 0 32 32"><path d="M31.294 16a15.29 15.29 0 0 0-9.442-14.13A15.293 15.293 0 0 0 .998 13.017a15.299 15.299 0 0 0 15 18.279 15.306 15.306 0 0 0 15.294-15.294zM17.176 28.882v-9.353h3.529a1.176 1.176 0 0 0 0-2.354h-3.529v-3.529a2.354 2.354 0 0 1 2.353-2.353h2.353a1.176 1.176 0 0 0 0-2.354h-2.353a4.718 4.718 0 0 0-4.706 4.706v3.529h-3.529a1.176 1.176 0 0 0 0 2.354h3.529v9.353A12.938 12.938 0 0 1 3.072 15.405 12.944 12.944 0 0 1 16 3.052a12.94 12.94 0 0 1 1.177 25.829z"/></symbol><symbol id="icon-grooming-icon" viewBox="0 0 32 32"><path d="M21.1 9.363c-.085-.371-.316-.65-.633-.765-.023-.008-.047-.009-.07-.016.228-1.036.87-4.801-1.234-7.004C17.944.301 16.042-.204 13.512.074a.413.413 0 0 0-.149-.031c-1.987-.064-3.508.484-4.504 1.626-1.953 2.238-1.246 6.013-1.042 6.908-.03.008-.061.01-.09.02-.318.115-.549.394-.633.765-.076.331-.033.712.118 1.075.278.665.841 1.09 1.381 1.09a.99.99 0 0 0 .172-.015c.458 1.357 1.223 2.486 2.487 3.179v1.392h-.656v3.925h7.002v-3.925h-.657V14.7c1.266-.692 2.031-1.824 2.489-3.187.056.01.113.014.17.014.54 0 1.103-.425 1.381-1.089.151-.363.194-.745.118-1.075zm-13.286.857c-.105-.251-.137-.518-.088-.732.039-.169.125-.289.236-.33a.284.284 0 0 1 .098-.016c.063 0 .133.018.205.051.074.599.179 1.18.326 1.731-.247-.005-.594-.269-.776-.705zm9.498 6.464c-.643.629-1.84 1.052-3.215 1.052s-2.573-.424-3.215-1.052h.694c.178 0 .323-.135.323-.301v-1.392c.63.241 1.362.392 2.215.432.839-.04 1.56-.188 2.182-.425v1.385c0 .166.145.301.323.301h.694zm1.984-7.81a12.19 12.19 0 0 1-.327 1.831c-.04.152-.084.299-.13.444-.396 1.263-1.02 2.247-1.984 2.876a4.13 4.13 0 0 1-.454.251c-.633.312-1.384.503-2.289.546-.902-.043-1.653-.23-2.287-.537a4.326 4.326 0 0 1-.483-.267c-.966-.63-1.591-1.612-1.988-2.872a8.912 8.912 0 0 1-.13-.444 12.131 12.131 0 0 1-.327-1.828 22.151 22.151 0 0 1-.122-1.556c.076-.441.186-.807.318-1.107a4.887 4.887 0 0 0 1.133-.334c.08.102.215.167.353.158a7.534 7.534 0 0 0 2.03-.421.354.354 0 0 0 .009.129.404.404 0 0 0 .389.292c.086.003 1.797.022 2.853-1.101a6.848 6.848 0 0 0 3.187 3.328l.278.357c-.009.087-.02.17-.03.256zm1.083 1.346c-.182.435-.527.699-.774.704.146-.552.25-1.132.324-1.731a.5.5 0 0 1 .205-.05c.035 0 .068.005.098.016.152.055.213.23.236.33.049.214.016.481-.089.732zm-7.015.782v-.843c0-.166.145-.301.323-.301s.323.135.323.301v.775h.497c.178 0 .323.135.323.301s-.145.301-.323.301h-.57c-.316 0-.573-.239-.573-.533zm-1.545-1.933c0 .323-.282.585-.629.585s-.629-.262-.629-.585c0-.323.282-.585.629-.585s.629.262.629.585zm5.814 0c0 .323-.282.585-.629.585s-.629-.262-.629-.585c0-.323.282-.585.629-.585s.629.262.629.585zm-1.954 3.785c0 .485-.817.658-1.582.658s-1.582-.173-1.582-.658c0-.166.145-.301.323-.301.144 0 .266.088.308.209.108.06.448.149.951.149s.843-.089.951-.149a.323.323 0 0 1 .308-.209c.178 0 .323.135.323.301zm16.212 9.377a.814.814 0 0 0-.409-.331.723.723 0 0 0-.095-.496.807.807 0 0 0-.409-.33c.027-.165 0-.339-.095-.496s-.243-.267-.409-.33a.717.717 0 0 0-.095-.496.819.819 0 0 0-.502-.363.883.883 0 0 0-.63.073l-.328.173a.948.948 0 0 0-.246-.252v-.329h1.831c.178 0 .323-.135.323-.301s-.145-.301-.323-.301h-1.831v-.301h1.831c.178 0 .323-.135.323-.301s-.145-.301-.323-.301h-1.831v-.301h1.831c.178 0 .323-.135.323-.301s-.145-.301-.323-.301h-1.831v-.301h1.831c.178 0 .323-.135.323-.301s-.145-.301-.323-.301h-1.831l.002-.301h1.829c.178 0 .323-.135.323-.301s-.145-.301-.323-.301h-1.829c-.364 0-.648.308-.648.701v1.448a1.79 1.79 0 0 0-.404-.98c-.59-.728-1.602-.947-2.253-.489-.34.239-.512.615-.519 1.023-.424-.105-.861-.054-1.2.184-.327.23-.519.603-.526 1.023-.006.389.141.789.415 1.127s.648.579 1.052.68c.135.034.27.05.402.05.295 0 .573-.082.799-.241.021-.015.037-.035.057-.051l1.014 1.131-.366.734a1.437 1.437 0 0 0-.076.139l-2.131 1.125-3.636-5.555a1.937 1.937 0 0 0-.314-.36 1.302 1.302 0 0 0-.793-.449 2.176 2.176 0 0 0-.98-.076v4.029a.726.726 0 0 1 .216.101c.119.083.206.2.242.338l1.59 6.197v-2.518l1.211 1.851c.385.588 1.058.914 1.75.914.343 0 .69-.08 1.008-.249l3.88-2.048c.016-.008.028-.02.044-.029.03.002.061.006.091.006.252 0 .508-.059.743-.183l.729-.385.045.05a.454.454 0 0 0 .591.063l.407-.286a.381.381 0 0 0 .148-.409l.317-.168c.193-.102.331-.267.39-.467s.031-.407-.079-.586zm-1.88-1.388.059-.031a.203.203 0 0 1 .139-.016.18.18 0 0 1 .111.08.165.165 0 0 1-.069.233l-.846.447c-.043.022-.092.027-.139.016s-.087-.041-.111-.08a.165.165 0 0 1 .069-.233l.787-.416zm-1.038-.468.008-.016c.006-.012.008-.025.013-.037.006-.014.01-.028.015-.043l.556-.294a.19.19 0 0 1 .139-.016.18.18 0 0 1 .111.08c.031.051.028.11.002.159a.176.176 0 0 1-.071.075l-.846.447a.205.205 0 0 1-.115.018l.187-.373zm-3.7-1.64c-.156.109-.355.082-.46.056-.216-.054-.43-.196-.587-.389s-.244-.423-.241-.632c.002-.101.028-.286.184-.396a.48.48 0 0 1 .279-.081c.253 0 .555.152.767.413.299.369.325.839.058 1.027zm.673-1.541c-.299-.368-.325-.839-.057-1.027a.477.477 0 0 1 .279-.081c.253 0 .555.153.767.414.157.193.245.423.242.631-.002.101-.028.286-.184.396s-.355.082-.459.056a1.14 1.14 0 0 1-.587-.389zm.832 2.416c-.147-.182-.109-.44.087-.577s.473-.101.62.081a.388.388 0 0 1 .08.21.748.748 0 0 0-.287.298l-.07.141a.456.456 0 0 1-.43-.153zm2.541 4.131-.296.156c-.413.219-.942.083-1.177-.301l-.799-1.308a.75.75 0 0 1-.082-.61l.004-.007.896-1.795c.023-.045.085-.075.162-.081a.377.377 0 0 1 .332.144c.007.01.016.019.021.029.027.05.034.1.015.138l-.793 1.584c-.013.025-.015.052-.02.078a.293.293 0 0 0 .177.322c.044.019.09.028.136.028s.09-.012.132-.029v1.428c0 .166.145.301.323.301s.323-.135.323-.301v-1.043l.979 1.092-.333.176zm.591-1.359a.192.192 0 0 1-.25-.064.165.165 0 0 1 .069-.233l.846-.447a.19.19 0 0 1 .139-.016.183.183 0 0 1 .111.08.165.165 0 0 1-.069.233l-.846.447zm1.437.276a.172.172 0 0 1-.086.103l-.845.447a.192.192 0 0 1-.122.018.185.185 0 0 1-.129-.082.165.165 0 0 1 .069-.233l.846-.447a.203.203 0 0 1 .09-.022l.015.002.034.004c.048.012.087.041.111.081s.03.085.017.13zm-10.796 8.703-.18-3.894c-.001-.01-.002-.02-.005-.031l-1.761-6.865a.166.166 0 0 0-.038-.07.293.293 0 0 0-.224-.094H9.851a.293.293 0 0 0-.224.094.166.166 0 0 0-.038.07l-1.546 6.03-.241-.126c-.051-.026-.102-.047-.152-.068l1.52-5.928a.593.593 0 0 1 .242-.338.73.73 0 0 1 .215-.1v-4.014c-.754-.227-1.614-.035-2.17.555L.509 23.948c-.385.409-.565.951-.493 1.49s.389 1.025.87 1.333l3.986 2.555c.124.08.256.14.391.191.163.174.357.323.577.437l1.815.941.011.004-.022.464-.02.431a.166.166 0 0 0 .056.128c.051.05.129.079.211.079h12.414c.083 0 .16-.029.212-.079a.171.171 0 0 0 .056-.128l-.02-.431zM5.103 24.849l2.477-2.625v4.154a2.282 2.282 0 0 0-.244-.076c-.048-.037-.089-.078-.141-.112l-2.091-1.341zm4.85 3.561a.116.116 0 0 1-.15.04l-1.469-.761a.327.327 0 0 0-.264-.008c-.079.028-.149.08-.191.149s-.053.152-.029.229a.305.305 0 0 0 .154.181l.001.001 1.759.912c.034.018.047.046.052.061s.01.046-.009.078-.049.043-.066.048-.05.009-.084-.009l-1.76-.913a.306.306 0 0 0-.114-.03.375.375 0 0 0-.203.049l-.018.009a.359.359 0 0 0-.12.112.284.284 0 0 0-.029.229c.02.066.067.119.126.159.01.007.017.016.028.022l1.469.761c.034.018.047.046.052.062s.01.045-.009.078c-.019.032-.049.044-.066.048s-.049.009-.084-.009l-1.633-.846c-.102-.053-.259-.032-.359.025a.295.295 0 0 0-.152.262.294.294 0 0 0 .053.154.307.307 0 0 0 .113.101l1.125.583c.034.018.047.046.052.061s.01.046-.009.078a.115.115 0 0 1-.15.04l-1.815-.941a1.45 1.45 0 0 1-.667-.702c-.175-.402-.155-.841.053-1.175.253-.406.74-.707 1.282-.707.22 0 .448.051.674.162l.02.009 2.395 1.256c.034.018.047.047.052.062s.01.046-.009.077zm7.99-1.491c-.009.528-.557.759-.836.351l-.281-.41a2.379 2.379 0 0 1-.336.679c.001.032.005.064.005.097 0 1.363-1.073 2.468-2.398 2.468s-2.398-1.105-2.398-2.468c0-.033.003-.064.005-.097a2.405 2.405 0 0 1-.336-.679l-.281.41c-.279.408-.827.177-.837-.351a14.804 14.804 0 0 0-.031-.754c-.061-.881 1.229-1.295 1.81-1.436.517-.346 1.251-.501 2.068-.501s1.551.156 2.068.501c.581.141 1.871.555 1.81 1.436-.018.251-.027.507-.032.754zm-4.829 1.83c0-.371.44-.672.983-.672s.983.301.983.672c0 .371-.44.672-.983.672s-.983-.301-.983-.672z"/></symbol><symbol id="icon-iconpaw" viewBox="0 0 33 32"><path d="M15.558 18.557c.181 3.691 2.861 4.162 5.358 7.263 3.695 4.434 6.668 3.117 7.173-.081.477-3.073-2.121-5.266-2.292-8.55s2.271-6.254 1.525-9.188c-.746-2.934-3.823-3.4-7.096 1.989-2.21 3.718-4.757 4.905-4.668 8.566zM9.971 9.458c2.092 1.699 4.582 1.093 5.468-.778s-.185-5.15-2.303-6.731C11.044.25 8.554.856 7.668 2.727c-.86 1.752.211 5.032 2.303 6.731zM4.798 18.931c2.467.132 4.711-1.56 4.987-4.028.248-2.343-1.527-4.403-4.077-4.562-2.467-.132-4.712 1.56-4.987 4.028-.248 2.343 1.61 4.43 4.077 4.562zM5.972 30.71c2.242.049 4.481-1.872 4.788-4.366.279-2.367-1.157-5.012-3.474-5.085-2.242-.049-4.481 1.872-4.788 4.366-.279 2.367 1.232 5.037 3.474 5.085z"/></symbol><symbol id="icon-instagram-icon" viewBox="0 0 32 32"><path stroke-linejoin="round" stroke-linecap="round" stroke-width="2.471" d="M16 22.275a6.275 6.275 0 1 0 0-12.55 6.275 6.275 0 0 0 0 12.55z"/><path stroke-width="2.471" d="M1.882 22.275V9.726a7.843 7.843 0 0 1 7.843-7.843h12.549a7.843 7.843 0 0 1 7.843 7.843v12.549a7.843 7.843 0 0 1-7.843 7.843H9.725a7.843 7.843 0 0 1-7.843-7.843z"/><path stroke-linejoin="round" stroke-linecap="round" stroke-width="2.471" d="m24.627 7.389.016-.018"/></symbol><symbol id="icon-man-icon" viewBox="0 0 32 32"><path d="M11.384 9.714c0-1.125.446-2.204 1.241-3a4.233 4.233 0 0 1 7.231 3 4.245 4.245 0 0 1-1.241 3 4.23 4.23 0 0 1-5.99 0 4.249 4.249 0 0 1-1.241-3zm4.235-6.666c-1.765 0-3.458.702-4.706 1.953a6.674 6.674 0 0 0 0 9.428 6.647 6.647 0 0 0 9.412 0 6.672 6.672 0 0 0 0-9.428 6.65 6.65 0 0 0-4.706-1.953zM5.333 22.442c0-.964.382-1.889 1.063-2.571S8 18.806 8.963 18.806h13.311c.963 0 1.886.383 2.567 1.065s1.063 1.607 1.063 2.571v.274a3.468 3.468 0 0 1-.024.338c-.024.21-.069.494-.157.831a6.743 6.743 0 0 1-1.209 2.445c-1.416 1.821-4.079 3.384-8.895 3.384S8.141 28.15 6.724 26.33a6.76 6.76 0 0 1-1.21-2.445 5.992 5.992 0 0 1-.177-1.088l-.002-.081v-.028l-.001-.01v-.236zm2.42.215v.015c.017.204.051.406.103.604.109.422.33.991.776 1.565.853 1.096 2.727 2.45 6.987 2.45s6.135-1.354 6.987-2.448c.362-.464.625-.997.774-1.566.052-.198.087-.4.104-.604l.001-.015v-.216a1.21 1.21 0 0 0-1.21-1.212H8.963a1.211 1.211 0 0 0-1.21 1.212v.216z"/></symbol><symbol id="icon-nutrirtion-icon" viewBox="0 0 21 32"><path d="M14.739 12.579c-.492-.097-.979.224-1.184.781-.04.108-.067.22-.083.333a5.632 5.632 0 0 0 1.335-1.101l-.068-.013zM15.195 7.184c.923-.736 1.184-2.251.584-3.382s-1.835-1.452-2.758-.716-1.184 2.251-.584 3.382 1.835 1.452 2.758.716zM18.854 7.802c-.862-1.309-2.033-1.324-2.68-.79s-.599 1.89-.059 2.8l.076.154c.186-.692.212-1.195.213-1.202.019-.588.407-1.046.885-1.046l.033.001c.488.022.871.527.853 1.126v.002l-.001.01c-.015.335-.108 1.541-.702 2.974a7.947 7.947 0 0 1-.191.428c.124.291.244.589.353.892l-.756-.149a7.826 7.826 0 0 1-2.458 2.539l3.378 3.43c.207.21.457.312.706.312.319 0 .635-.168.854-.492.39-.578.324-1.434-.147-1.913l-.812-.825.263.052c.081.016.162.02.241.014.191.011.415-.071.691-.189.767-.328 1.636-.906 1.41-2.666-.456-2.365-.975-3.652-2.151-5.461z"/><path d="M17.314 11.731c.638-1.54.679-2.814.683-2.895.014-.48-.291-.883-.682-.901s-.719.356-.734.834c-.001.055-.06 1.103-.578 2.285-.523 1.183-1.464 2.512-3.368 3.29-.372.15-.574.642-.451 1.098.098.365.375.597.673.597a.582.582 0 0 0 .222-.044c2.328-.934 3.603-2.727 4.235-4.265zM7.979 15.866c.322.075.71.199.812.332.276.357.411 1.095.769 1.147.25.036.338.029.648-.216.306-.243.015-1.187-.058-1.55-.104-.515.143-1.08.147-1.115a.618.618 0 0 1 .83-.368c.215.073.089-.414-.247-.657-.4-.289-.689-.154-.981.127-.564-.529-1.448-.426-1.95-.195-.08.401-.111.79-.111 1.147 0 .543.071 1.014.141 1.348zm1.432-1.142c.131-.11.31-.068.4.093s.056.381-.076.491c-.132.11-.311.068-.4-.093s-.056-.381.076-.491zM7.587 13.359a3.235 3.235 0 0 1-.374-.014.356.356 0 0 0-.13-.018l-.008.002c-1.807-.252-2.299-1.929-4.411-.188-.638-.23-1.398-.724-1.974-1.778-.116-.212-.351-.268-.523-.125s-.219.43-.102.642c.548.993 1.225 1.574 1.86 1.915l-.023.064c-.163.3-.29.696-.373 1.224-.012.077-.529 4.124.283 4.124s1.035-3.062 1.489-3.454c.064.007 1.269 1.555 2.298 1.361.241-.046.567-.228.84-.423l.445 2.186c.05.245.229.412.429.412a.368.368 0 0 0 .066-.006c.226-.042.389-.286.377-.566l-.116-2.721a7.153 7.153 0 0 1-.157-1.477 6.4 6.4 0 0 1 .104-1.159zM11.54 18.704h-.112l-.228-.867H8.643l-.228.867h-.112c-.09 0-.163.09-.163.2s.073.2.163.2h3.237c.09 0 .163-.09.163-.2s-.073-.2-.163-.2zM4.068 27.476v3.428h-.65l-1.457-2.378v2.378h-.647v-3.428h.647l1.462 2.381v-2.381h.645zm2.129 2.823v-1.942h.626v2.547h-.589l-.038-.605zm.08-.527.193-.005c0 .171-.019.329-.057.473s-.097.27-.177.377a.818.818 0 0 1-.299.247.982.982 0 0 1-.428.087 1.07 1.07 0 0 1-.344-.052.695.695 0 0 1-.268-.167.786.786 0 0 1-.172-.294 1.365 1.365 0 0 1-.061-.436v-1.646h.622v1.65c0 .085.009.155.028.212.02.057.048.103.082.139.036.034.078.06.125.075.049.014.1.021.155.021.151 0 .269-.03.356-.089a.498.498 0 0 0 .188-.245 1.01 1.01 0 0 0 .056-.349zm2.302-1.415v.447h-1.46v-.447h1.46zm-1.068-.627h.624v2.439c0 .075.01.133.031.174s.051.068.092.082a.45.45 0 0 0 .146.021c.041 0 .079-.002.113-.007s.064-.009.087-.014l.002.466a1.21 1.21 0 0 1-.396.059.89.89 0 0 1-.367-.071.526.526 0 0 1-.245-.233.906.906 0 0 1-.087-.428v-2.489zm2.104 1.147v2.027h-.622v-2.547h.589l.033.52zm.775-.537-.009.579a.717.717 0 0 0-.49.021.461.461 0 0 0-.181.111.488.488 0 0 0-.108.179.77.77 0 0 0-.042.236l-.134-.017c0-.162.016-.311.049-.45s.081-.259.144-.363a.693.693 0 0 1 .235-.24.626.626 0 0 1 .33-.087.741.741 0 0 1 .208.03zm1.001.017v2.547h-.624v-2.547h.624zm-.667-.667c0-.093.031-.17.094-.231.064-.061.151-.092.259-.092s.194.031.257.092a.306.306 0 0 1 .097.231.3.3 0 0 1-.097.228c-.063.061-.148.092-.257.092s-.195-.031-.259-.092a.304.304 0 0 1-.094-.228zm2.465.667v.447h-1.46v-.447h1.46zm-1.069-.627h.624v2.439c0 .075.01.133.031.174s.051.068.092.082a.45.45 0 0 0 .146.021c.041 0 .079-.002.113-.007s.064-.009.087-.014l.002.466a1.21 1.21 0 0 1-.396.059.89.89 0 0 1-.367-.071.526.526 0 0 1-.245-.233.906.906 0 0 1-.087-.428v-2.489zm2.143.627v2.547h-.624v-2.547h.624zm-.666-.667c0-.093.031-.17.094-.231.064-.061.151-.092.259-.092s.194.031.257.092a.306.306 0 0 1 .097.231.3.3 0 0 1-.097.228c-.063.061-.148.092-.257.092s-.195-.031-.259-.092a.304.304 0 0 1-.094-.228zm1.149 1.966v-.05c0-.187.027-.359.08-.515.053-.159.131-.296.233-.412s.227-.206.374-.271c.148-.066.316-.099.504-.099.192 0 .361.033.509.099.149.064.275.155.377.271s.18.253.233.412c.053.157.08.329.08.515v.05c0 .185-.027.357-.08.515a1.219 1.219 0 0 1-.233.412c-.102.116-.227.206-.374.271s-.316.097-.506.097c-.188 0-.357-.032-.506-.097s-.275-.155-.377-.271a1.219 1.219 0 0 1-.233-.412 1.612 1.612 0 0 1-.08-.515zm.621-.049v.05c0 .111.011.216.033.313s.056.183.101.257a.5.5 0 0 0 .177.174.537.537 0 0 0 .264.061c.1 0 .187-.02.259-.061a.508.508 0 0 0 .177-.174c.047-.074.082-.159.104-.257s.033-.202.033-.313v-.05c0-.11-.011-.213-.033-.308a.788.788 0 0 0-.104-.257.491.491 0 0 0-.44-.243.489.489 0 0 0-.436.243.822.822 0 0 0-.101.257 1.379 1.379 0 0 0-.033.308zm2.83-.707v2.004h-.622v-2.547h.584l.038.544zm-.099.639h-.184c.002-.185.027-.353.075-.504s.117-.28.205-.389c.09-.108.195-.191.318-.249s.259-.087.41-.087c.122 0 .233.017.332.052s.184.09.254.165a.733.733 0 0 1 .165.297c.039.121.059.27.059.447v1.634h-.626v-1.639a.601.601 0 0 0-.052-.275.292.292 0 0 0-.146-.144.571.571 0 0 0-.233-.042.51.51 0 0 0-.431.217c-.047.067-.083.145-.108.233s-.038.183-.038.285z"/></symbol><symbol id="icon-pet-icon" viewBox="0 0 32 32"><path d="M6.467 29.333v-12.8l-.367-.367c-.244-.244-.433-.533-.567-.867s-.2-.678-.2-1.033a2.637 2.637 0 0 1 .767-1.867l4.367-4.4H15.8l5.333-5.333 2.733 2.733c.889.889 1.578 1.894 2.067 3.016s.733 2.317.733 3.584a8.877 8.877 0 0 1-.733 3.584 9.739 9.739 0 0 1-2.067 3.016l-2.733 2.733v8H6.466zm2.666-2.666h9.333v-6.433l3.5-3.5c.644-.645 1.144-1.367 1.5-2.167s.533-1.655.533-2.567c0-.889-.184-1.733-.551-2.533s-.86-1.522-1.483-2.167l-.833-.867-4.233 4.233h-5.333l-.767.767 2.233 2.233c.622.622 1.106 1.339 1.451 2.149s.516 1.662.516 2.551-.167 1.739-.5 2.551a6.624 6.624 0 0 1-1.467 2.183l-3.9-3.9v7.467z"/></symbol><symbol id="icon-phone-icon" viewBox="0 0 32 32"><path d="M29.524 31.238c-3.962 0-7.689-.749-11.18-2.248s-6.54-3.549-9.143-6.152c-2.604-2.604-4.661-5.651-6.171-9.143C1.518 10.202.763 6.462.763 2.475a1.55 1.55 0 0 1 .457-1.201A1.63 1.63 0 0 1 2.439.76h5.943c.457 0 .851.171 1.181.514.33.343.495.756.495 1.239 0 1.117.076 2.171.229 3.162s.394 1.93.724 2.819c.127.279.152.565.076.856a1.962 1.962 0 0 1-.457.82l-3.81 3.81c1.092 2.235 2.641 4.356 4.648 6.362s4.165 3.606 6.476 4.8l3.809-3.81c.229-.229.495-.381.8-.457s.61-.051.914.076c.94.305 1.911.539 2.914.704 1.004.166 2.039.248 3.105.248.483 0 .895.178 1.239.533a1.8 1.8 0 0 1 .514 1.295v5.829c0 .457-.165.851-.495 1.181s-.737.495-1.219.495zm-8.762-4.571c1.143.432 2.336.775 3.581 1.029s2.527.419 3.848.495v-3.276a27.648 27.648 0 0 1-2.418-.267 16.783 16.783 0 0 1-2.458-.571l-2.552 2.59zM28.191 16c0-3.403-1.181-6.286-3.543-8.648S19.404 3.809 16 3.809V.761c2.108 0 4.089.4 5.943 1.199 1.854.801 3.467 1.886 4.838 3.258s2.457 2.984 3.256 4.838c.8 1.854 1.201 3.835 1.201 5.943H28.19zm-6.096 0c0-1.676-.597-3.111-1.79-4.305S17.676 9.905 16 9.905V6.857c2.54 0 4.698.889 6.476 2.667S25.143 13.46 25.143 16h-3.048zM5.333 11.162 7.847 8.61a24.236 24.236 0 0 1-.515-2.324 22.951 22.951 0 0 1-.285-2.476h-3.2c.051 1.219.203 2.438.457 3.657s.597 2.451 1.029 3.695z"/></symbol><symbol id="icon-Star-icon" viewBox="0 0 34 32"><path d="m17.067 0 3.832 11.793h12.4l-10.032 7.288 3.832 11.793-10.032-7.288-10.032 7.288 3.832-11.793L.835 11.793h12.4L17.067 0z"/></symbol><symbol id="icon-training-icon" viewBox="0 0 21 32"><path d="m4.097 16.83.759-2.55-.276-.752c-.586-.098-1.069-.392-1.379-.785l-1.034 3.433-2.034 3.433c-.276.458-.103 1.046.379 1.308s1.103.098 1.379-.36l2.138-3.531c.034-.065.069-.131.069-.196zM.717 9.708c.317.166.741.033.917-.3l1.587-3.062.282-.2.141-.832c.071-.433.282-.832.564-1.165L2.304 5.314c-.106.067-.176.166-.247.266L.4 8.809c-.176.333-.035.732.317.899zM6.798 3.556c1.073 0 1.942-.796 1.942-1.778S7.87 0 6.798 0C5.725 0 4.856.796 4.856 1.778s.87 1.778 1.942 1.778zM19.048 16.827s.034.033.034.066c.275-.164.378-.524.378-.524 1.032.295 1.238-.622 1.238-.622.138-.262-.55-.524-.55-.524-.034-.655-.825-.851-.825-.851-.378-.328-.275 0-.275 0-.378-.033-.619.098-.619.098-.619-.557-.997.295-.997.295-.103 0-.172.033-.275.033a16.364 16.364 0 0 0 1.892 2.03zM20.008 18.925c-.179-.166-1.465-.895-1.465-.895.286-.133.322-.696.322-.895-.679-.597-1.393-1.36-2.108-2.222-.357.066-2.715.995-5.001.033-.857-.365-1.607.166-1.607.166-.643.696-.357 1.824-.357 1.824l.893-.895c.464-.332.643-.265.75-.1.071.133.036.298-.071.431-.857.829-.572 1.691-.572 1.691l-1.215.995c-.464.464.071.829.071.829.107-.365.964-.929.964-.929-.036.431.179.531.179.531.607-.166.464-.73.464-.73.964-.033 1.072-.431 1.072-.431.964.166 1.429-.431 1.429-.431.25.431 2.429.895 2.429.895.143.066.965 1.592.965 1.592.179.033.357.265.357.265.393.232 1.215-.033 1.215-.033-.071-.298-.5-.298-.5-.298-.965 0-.822-1.492-.822-1.492.036-.199.786.166.786.166l1.643.564c.822.398 1.179-.066 1.179-.066.25-.365-1-.564-1-.564zM11.977 7.242c.816 1.651 2.554 4.921 4.789 7.576.106-.032.248-.032.39-.065a.448.448 0 0 1-.106-.13c-2.235-2.622-3.973-5.892-4.754-7.511a.741.741 0 0 1-.319.13z"/><path d="M12.152 6.86c.357-.131.571-.492.428-.82s-.536-.525-.893-.394l-1.928.623C7.51 4.333 7.403 4.005 6.51 3.874c-1.143-.164-2.214.591-2.392 1.64l-.857 5.512c-.179 1.05.643 2.034 1.785 2.198h.107l.928 2.559-1.892 2.559a.914.914 0 0 0 .286 1.345c.464.295 1.143.197 1.464-.262l2.214-2.953c.178-.262.25-.558.143-.853l-1.178-3.248c.179-.23.321-.525.357-.82l.785-4.888.893.787c.179.164.464.23.714.131l2.285-.722zM3.443 27.476v3.428h-.645v-3.428h.645zm1.064 0v.511H1.745v-.511h2.762zm.84 1.401v2.027h-.622v-2.547h.589l.033.52zm.775-.537-.009.579a.717.717 0 0 0-.49.021.461.461 0 0 0-.181.111.488.488 0 0 0-.108.179.77.77 0 0 0-.042.236l-.134-.017c0-.162.016-.311.049-.45s.081-.259.144-.363a.693.693 0 0 1 .235-.24.626.626 0 0 1 .33-.087.741.741 0 0 1 .208.03zm1.665 2.023v-1.175c0-.086-.015-.161-.045-.224s-.075-.111-.137-.146a.475.475 0 0 0-.233-.052.535.535 0 0 0-.219.042.32.32 0 0 0-.141.12.308.308 0 0 0-.049.174h-.624c0-.105.025-.205.075-.299a.792.792 0 0 1 .214-.254c.094-.075.206-.134.337-.177.132-.042.279-.064.443-.064.193 0 .365.033.516.099a.783.783 0 0 1 .358.292c.088.13.132.294.132.492v1.111c0 .127.008.236.024.327a.898.898 0 0 0 .075.233v.04H7.88a.902.902 0 0 1-.068-.245 1.887 1.887 0 0 1-.024-.297zm.087-1.01.005.37h-.393a.948.948 0 0 0-.257.031.468.468 0 0 0-.181.085.347.347 0 0 0-.106.132.395.395 0 0 0 .007.341c.03.05.072.09.127.12a.438.438 0 0 0 .198.042c.11 0 .206-.022.287-.066.082-.045.145-.1.191-.165s.07-.125.073-.183l.179.268c-.022.064-.055.133-.099.205s-.1.14-.17.203a.854.854 0 0 1-.589.216c-.165 0-.312-.033-.443-.099s-.233-.156-.308-.271a.697.697 0 0 1-.113-.391c0-.135.025-.254.075-.358s.125-.191.224-.261a1.04 1.04 0 0 1 .367-.162c.148-.038.316-.057.506-.057h.419zm1.758-.996v2.547h-.624v-2.547h.624zm-.666-.667c0-.093.031-.17.094-.231.064-.061.151-.092.259-.092s.194.031.257.092a.306.306 0 0 1 .097.231.3.3 0 0 1-.097.228c-.063.061-.148.092-.257.092s-.195-.031-.259-.092a.304.304 0 0 1-.094-.228zm1.87 1.21v2.004h-.622v-2.547h.584l.038.544zm-.099.639h-.184c.002-.185.027-.353.075-.504s.117-.28.205-.389a.913.913 0 0 1 .728-.336c.122 0 .233.017.332.052s.184.09.254.165a.733.733 0 0 1 .165.297c.039.121.059.27.059.447v1.634h-.626v-1.639a.601.601 0 0 0-.052-.275.292.292 0 0 0-.146-.144.571.571 0 0 0-.233-.042.51.51 0 0 0-.431.217c-.047.067-.083.145-.108.233s-.038.183-.038.285zm2.842-1.182v2.547h-.624v-2.547h.624zm-.667-.667c0-.093.031-.17.094-.231.064-.061.151-.092.259-.092s.194.031.257.092a.306.306 0 0 1 .097.231.3.3 0 0 1-.097.228c-.063.061-.148.092-.257.092s-.195-.031-.259-.092a.304.304 0 0 1-.094-.228zm1.87 1.21v2.004h-.622v-2.547h.584l.038.544zm-.099.639h-.184c.002-.185.027-.353.075-.504s.117-.28.205-.389a.913.913 0 0 1 .728-.336c.122 0 .233.017.332.052s.184.09.254.165a.733.733 0 0 1 .165.297c.039.121.059.27.059.447v1.634h-.626v-1.639a.601.601 0 0 0-.052-.275.292.292 0 0 0-.146-.144.571.571 0 0 0-.233-.042.51.51 0 0 0-.431.217c-.047.067-.083.145-.108.233s-.038.183-.038.285zm3.802-1.182h.565v2.47c0 .231-.05.426-.151.586a.938.938 0 0 1-.417.367 1.44 1.44 0 0 1-.624.127c-.102 0-.213-.014-.332-.042a1.322 1.322 0 0 1-.341-.134.848.848 0 0 1-.271-.233l.28-.367c.085.099.18.174.287.224a.78.78 0 0 0 .346.078.658.658 0 0 0 .32-.071.468.468 0 0 0 .205-.203.66.66 0 0 0 .073-.325v-1.895l.059-.581zm-1.721 1.304v-.049c0-.195.024-.371.071-.53.047-.16.115-.298.202-.412a.929.929 0 0 1 .323-.266.95.95 0 0 1 .428-.094c.168 0 .309.031.424.092a.772.772 0 0 1 .287.261c.077.113.137.247.179.403.044.154.078.323.101.509v.134a2.638 2.638 0 0 1-.106.497c-.047.151-.11.283-.188.395-.078.112-.176.198-.292.259s-.253.092-.41.092a.91.91 0 0 1-.747-.368c-.088-.116-.155-.253-.202-.41s-.071-.328-.071-.513zm.622-.049v.049c0 .11.011.213.033.308s.056.181.101.254c.046.072.103.129.172.169s.151.061.247.061a.572.572 0 0 0 .316-.08.515.515 0 0 0 .188-.224c.044-.096.072-.203.085-.322v-.37a1.108 1.108 0 0 0-.052-.261c-.025-.08-.06-.149-.106-.207s-.104-.104-.174-.137a.593.593 0 0 0-.252-.05.486.486 0 0 0-.421.236.904.904 0 0 0-.104.257 1.432 1.432 0 0 0-.033.316z"/></symbol><symbol id="icon-close-button" viewBox="0 0 32 32"><path stroke-linecap="round" stroke-width="2" d="m8 8 8 8 8-8M8 24l8-8 8 8"/></symbol></defs></svg>