<svg width="48" height="48" viewBox="0 0 48 48" fill="none" xmlns="http://www.w3.org/2000/svg">
<path d="M34.2136 22.9062C34.1854 23.2014 34.0061 23.5243 33.5925 23.8524C29.5378 27.0697 25.4831 30.2869 21.4284 33.5041C20.5627 34.191 18.5085 34.3509 18.5085 32.7349C18.5085 26.7817 18.5085 20.8286 18.5085 14.8754C18.5085 13.413 20.7133 13.0526 21.5957 13.648C25.6504 16.3839 29.7052 19.1198 33.7599 21.8557C34.2242 22.169 34.3261 22.5445 34.2136 22.9062ZM47.9999 27.9806C46.715 58.7926 -5.20681 52.4094 0.427288 19.9744C2.79127 6.36476 14.0923 -0.792661 26.5091 0.069809C40.4858 1.04068 47.7456 13.7545 47.9987 27.7767C47.9994 27.812 47.9763 27.8413 47.9717 27.8755C47.9768 27.9136 48.0017 27.9379 47.9999 27.9806ZM45.3944 28.3793C45.1835 18.4538 41.6638 7.73427 32.5821 3.46803C20.5455 -2.18628 6.36403 4.4825 3.3052 18.2249C0.569308 30.5163 6.65347 41.4139 17.7858 45.3557C29.6529 49.5577 44.746 42.9456 45.3944 28.3793Z" fill="white"/>
</svg>
